<svg width="20" height="20" viewBox="0 0 20 20" fill="none" xmlns="http://www.w3.org/2000/svg">
<g id="System Icons">
<path id="Vector" d="M3.3335 6.66683H5.00016M3.3335 10.0002H5.8335M3.3335 13.3335H5.00016M6.66683 3.3335V5.00016M10.0002 3.3335V5.8335M13.3335 3.3335V5.00016M4.16683 3.3335H15.8335C16.0545 3.3335 16.2665 3.42129 16.4228 3.57757C16.579 3.73385 16.6668 3.94582 16.6668 4.16683V8.3335C16.6668 8.55451 16.579 8.76647 16.4228 8.92275C16.2665 9.07903 16.0545 9.16683 15.8335 9.16683H10.0002C9.77915 9.16683 9.56719 9.25463 9.41091 9.41091C9.25463 9.56719 9.16683 9.77915 9.16683 10.0002V15.8335C9.16683 16.0545 9.07903 16.2665 8.92275 16.4228C8.76647 16.579 8.55451 16.6668 8.3335 16.6668H4.16683C3.94582 16.6668 3.73385 16.579 3.57757 16.4228C3.42129 16.2665 3.3335 16.0545 3.3335 15.8335V4.16683C3.3335 3.94582 3.42129 3.73385 3.57757 3.57757C3.73385 3.42129 3.94582 3.3335 4.16683 3.3335Z" stroke="#5E5E5E" stroke-width="1.5" stroke-linecap="round" stroke-linejoin="round"/>
</g>
</svg>
