<svg width="199" height="40" viewBox="0 0 199 40" fill="none" xmlns="http://www.w3.org/2000/svg">
<mask id="mask0_6043_4168" style="mask-type:luminance" maskUnits="userSpaceOnUse" x="0" y="0" width="40" height="40">
<path d="M39.0476 0.476074H0V39.5237H39.0476V0.476074Z" fill="white"/>
</mask>
<g mask="url(#mask0_6043_4168)">
<path d="M25.9069 28.216L26.3547 28.6636L26.3332 28.6851L26.3486 28.7004L25.9009 29.1481L20.1601 34.8879L19.6142 35.4337L19.1879 34.7898C19.1112 34.6733 19.0377 34.5599 18.9732 34.4495C18.9089 34.3452 18.8445 34.2348 18.7831 34.1245L18.7494 34.0631L18.7157 34.0048C18.6666 33.916 18.6237 33.8363 18.5808 33.7504L18.5777 33.7412C18.5409 33.6706 18.5071 33.6032 18.4734 33.5296C18.4335 33.4529 18.3968 33.3702 18.3599 33.2904C18.3139 33.1924 18.2679 33.085 18.2219 32.9807C18.1851 32.8919 18.1484 32.7999 18.1115 32.7048C18.0962 32.668 18.0809 32.6282 18.0686 32.5883C18.0349 32.4994 18.0042 32.4135 17.9766 32.3338C17.9644 32.297 17.9521 32.2633 17.9398 32.2296C17.9091 32.1437 17.8815 32.0548 17.857 31.9689C17.8478 31.9383 17.8325 31.8984 17.8232 31.8524C17.8232 31.8524 17.8232 31.8493 17.8232 31.8463V31.8371L17.8171 31.8248C17.7834 31.7114 17.7558 31.6071 17.7312 31.5121C17.7068 31.417 17.6822 31.3189 17.6577 31.2146L17.6485 31.1779C17.6424 31.1472 17.6362 31.1196 17.6301 31.0889L17.6209 31.0491C17.5964 30.9448 17.5749 30.8375 17.5565 30.7271C17.535 30.6076 17.5105 30.4787 17.4951 30.3439C17.4798 30.2519 17.4675 30.1538 17.4522 30.0311V30.0219V30.0127V29.9882C17.443 29.9514 17.4399 29.9115 17.4369 29.8747C17.4277 29.7766 17.4154 29.6754 17.4092 29.5682C17.4092 29.5436 17.4062 29.5222 17.4062 29.5068C17.397 29.3995 17.3909 29.2952 17.3878 29.1879C17.3878 29.1572 17.3878 29.1235 17.3848 29.0898C17.3786 28.9825 17.3786 28.866 17.3786 28.7188C17.3786 27.6027 17.5411 26.5143 17.8662 25.4686L14.5205 28.8139C14.5328 30.5769 14.8701 32.294 15.5264 33.9221C16.2225 35.6391 17.2437 37.1814 18.5624 38.506L19.4241 39.3706L19.5712 39.5179L30.372 28.7188L22.0461 20.3942L21.5983 19.9465L21.3499 19.6951L19.9914 18.3398L13.4195 11.769L12.9718 11.3214L12.9964 11.2968L13.438 10.8462L19.1788 5.10626L19.7246 4.56048L20.1509 5.20437C21.3408 7.00115 21.9694 9.0984 21.9694 11.2724C21.9694 11.7323 21.9418 12.1861 21.8835 12.6337L24.7447 9.77293C24.6098 8.49744 24.2969 7.25257 23.8186 6.06597C23.1225 4.34892 22.1012 2.8097 20.7826 1.48512L19.7706 0.470215L8.9668 11.2785L25.9069 28.216Z" fill="#FF385C"/>
<path d="M10.7949 26.704L10.3472 26.2563L4.63099 20.541L4.08819 19.9983L4.72913 19.5721C6.53231 18.3671 8.63603 17.7324 10.8195 17.7324C10.9698 17.7324 11.1169 17.7324 11.2672 17.7417L8.58083 15.0557C7.56271 15.2212 6.56297 15.5002 5.60925 15.8897C3.89499 16.5857 2.35247 17.6098 1.03074 18.9313L0.00341797 19.9584L10.2031 30.1565L16.9436 23.4171L15.5145 21.9882L11.2426 26.2595L10.7949 26.7071V26.704Z" fill="#FF385C"/>
<path d="M27.6583 12.6983L28.106 13.146L34.4172 19.4562L34.9599 19.9988L34.3221 20.425C32.5251 21.6301 30.4213 22.2648 28.2348 22.2678C28.1888 22.2678 28.1428 22.2678 28.0968 22.2678L30.7311 24.9017C31.6541 24.733 32.5649 24.4663 33.4419 24.1106C35.1593 23.4146 36.7018 22.3905 38.0235 21.0689L39.0478 20.0448L28.2532 9.25195L21.666 15.8381L23.0951 17.2669L27.2167 13.146L27.6644 12.6983H27.6583Z" fill="#FF385C"/>
</g>
<path d="M47.4385 27.619L53.3128 11.619H56.3756L62.2042 27.619H59.3013L54.8213 14.819L50.3185 27.619H47.4385ZM50.0442 23.8476L50.7985 21.6762H58.6613L59.3928 23.8476H50.0442ZM64.2913 27.619V16.2819H66.737L66.9885 18.4304C67.2628 17.9276 67.598 17.5009 67.9942 17.1504C68.3904 16.7847 68.8551 16.5028 69.3885 16.3047C69.9218 16.1066 70.5161 16.0076 71.1713 16.0076V18.8876H70.417C69.9294 18.8876 69.4799 18.9485 69.0685 19.0704C68.657 19.1771 68.299 19.36 67.9942 19.619C67.6894 19.8781 67.4532 20.2362 67.2856 20.6933C67.118 21.1352 67.0342 21.6838 67.0342 22.339V27.619H64.2913ZM73.1975 27.619V16.2819H75.6432L75.8947 18.4304C76.169 17.9276 76.5042 17.5009 76.9004 17.1504C77.2966 16.7847 77.7613 16.5028 78.2947 16.3047C78.828 16.1066 79.4223 16.0076 80.0775 16.0076V18.8876H79.3232C78.8356 18.8876 78.3861 18.9485 77.9747 19.0704C77.5632 19.1771 77.2051 19.36 76.9004 19.619C76.5956 19.8781 76.3594 20.2362 76.1918 20.6933C76.0242 21.1352 75.9404 21.6838 75.9404 22.339V27.619H73.1975ZM87.2297 27.8933C86.1478 27.8933 85.165 27.6419 84.2811 27.139C83.4126 26.6362 82.7269 25.9428 82.224 25.059C81.7211 24.16 81.4697 23.1238 81.4697 21.9504C81.4697 20.7771 81.7211 19.7409 82.224 18.8419C82.7421 17.9428 83.4354 17.2495 84.304 16.7619C85.1878 16.259 86.1707 16.0076 87.2526 16.0076C88.3497 16.0076 89.3326 16.259 90.2011 16.7619C91.0697 17.2495 91.7554 17.9428 92.2583 18.8419C92.7764 19.7257 93.0354 20.7619 93.0354 21.9504C93.0354 23.1238 92.7764 24.16 92.2583 25.059C91.7554 25.9428 91.0621 26.6362 90.1783 27.139C89.3097 27.6419 88.3269 27.8933 87.2297 27.8933ZM87.2297 25.539C87.7783 25.539 88.2735 25.4095 88.7154 25.1504C89.1726 24.8762 89.5383 24.4723 89.8126 23.939C90.0869 23.4057 90.224 22.7428 90.224 21.9504C90.224 21.1581 90.0869 20.4952 89.8126 19.9619C89.5383 19.4285 89.1726 19.0323 88.7154 18.7733C88.2735 18.499 87.7859 18.3619 87.2526 18.3619C86.7345 18.3619 86.2469 18.499 85.7897 18.7733C85.3326 19.0323 84.9592 19.4285 84.6697 19.9619C84.3954 20.4952 84.2583 21.1581 84.2583 21.9504C84.2583 22.7276 84.3954 23.3904 84.6697 23.939C84.9592 24.4723 85.325 24.8762 85.7669 25.1504C86.224 25.4095 86.7116 25.539 87.2297 25.539ZM97.4914 27.619L94.154 16.2819H96.8743L99.2514 25.8819L98.5886 25.859L101.286 16.2819H104.326L107.046 25.859L106.36 25.8819L108.737 16.2819H111.48L108.143 27.619H105.309L102.429 17.699H103.183L100.326 27.619H97.4914ZM124.419 27.8933C123.261 27.8933 122.232 27.6876 121.333 27.2762C120.434 26.8647 119.726 26.2781 119.208 25.5162C118.705 24.7542 118.446 23.8476 118.43 22.7962H121.333C121.349 23.3295 121.478 23.8095 121.722 24.2362C121.966 24.6476 122.309 24.9752 122.75 25.219C123.208 25.4628 123.756 25.5847 124.396 25.5847C124.96 25.5847 125.44 25.5009 125.836 25.3333C126.248 25.1504 126.56 24.899 126.773 24.579C126.987 24.2438 127.093 23.8552 127.093 23.4133C127.093 22.8952 126.971 22.4762 126.728 22.1562C126.499 21.8209 126.171 21.539 125.745 21.3104C125.333 21.0819 124.853 20.8838 124.305 20.7162C123.771 20.5485 123.208 20.3581 122.613 20.1447C121.379 19.7333 120.442 19.2 119.802 18.5447C119.162 17.8743 118.842 16.9828 118.842 15.8704C118.842 14.9409 119.063 14.1409 119.505 13.4704C119.962 12.8 120.587 12.2819 121.379 11.9162C122.187 11.5352 123.116 11.3447 124.168 11.3447C125.234 11.3447 126.164 11.5352 126.956 11.9162C127.749 12.2971 128.373 12.8304 128.83 13.5162C129.303 14.1866 129.547 14.9943 129.562 15.939H126.636C126.636 15.5428 126.53 15.1771 126.316 14.8419C126.118 14.4914 125.829 14.2095 125.448 13.9962C125.082 13.7676 124.64 13.6533 124.122 13.6533C123.665 13.6381 123.253 13.7143 122.888 13.8819C122.522 14.0343 122.232 14.2628 122.019 14.5676C121.821 14.8571 121.722 15.2228 121.722 15.6647C121.722 16.0914 121.821 16.4495 122.019 16.739C122.217 17.0133 122.499 17.2495 122.865 17.4476C123.23 17.6304 123.65 17.8057 124.122 17.9733C124.61 18.1409 125.143 18.3238 125.722 18.5219C126.514 18.7809 127.23 19.1009 127.87 19.4819C128.526 19.8476 129.044 20.3276 129.425 20.9219C129.806 21.5162 129.996 22.2857 129.996 23.2304C129.996 24.0533 129.783 24.8228 129.356 25.539C128.93 26.24 128.305 26.8114 127.482 27.2533C126.659 27.68 125.638 27.8933 124.419 27.8933ZM132.528 32.6476V16.2819H134.973L135.27 17.9504C135.514 17.6152 135.811 17.2952 136.162 16.9904C136.512 16.6857 136.931 16.4495 137.419 16.2819C137.907 16.099 138.478 16.0076 139.133 16.0076C140.215 16.0076 141.168 16.2666 141.99 16.7847C142.829 17.3028 143.491 18.0114 143.979 18.9104C144.467 19.8095 144.71 20.8304 144.71 21.9733C144.71 23.1162 144.467 24.1371 143.979 25.0362C143.491 25.92 142.829 26.6209 141.99 27.139C141.152 27.6419 140.192 27.8933 139.11 27.8933C138.242 27.8933 137.48 27.7333 136.825 27.4133C136.185 27.0781 135.667 26.6057 135.27 25.9962V32.6476H132.528ZM138.562 25.5162C139.217 25.5162 139.796 25.3638 140.299 25.059C140.817 24.7543 141.213 24.3352 141.488 23.8019C141.777 23.2685 141.922 22.6514 141.922 21.9504C141.922 21.2647 141.777 20.6552 141.488 20.1219C141.213 19.5733 140.817 19.1466 140.299 18.8419C139.796 18.5371 139.217 18.3847 138.562 18.3847C137.907 18.3847 137.328 18.5371 136.825 18.8419C136.322 19.1466 135.926 19.5657 135.636 20.099C135.362 20.6323 135.225 21.2495 135.225 21.9504C135.225 22.6514 135.362 23.2685 135.636 23.8019C135.926 24.3352 136.322 24.7543 136.825 25.059C137.328 25.3638 137.907 25.5162 138.562 25.5162ZM151.19 27.8933C150.23 27.8933 149.437 27.7409 148.812 27.4362C148.188 27.1162 147.723 26.6971 147.418 26.179C147.113 25.6457 146.961 25.0666 146.961 24.4419C146.961 23.7257 147.144 23.1085 147.51 22.5904C147.89 22.0571 148.447 21.6457 149.178 21.3562C149.91 21.0514 150.816 20.899 151.898 20.899H154.801C154.801 20.3047 154.71 19.8171 154.527 19.4362C154.359 19.04 154.092 18.7428 153.727 18.5447C153.376 18.3466 152.934 18.2476 152.401 18.2476C151.776 18.2476 151.228 18.4 150.755 18.7047C150.298 18.9942 150.024 19.4285 149.932 20.0076H147.235C147.311 19.1847 147.586 18.4762 148.058 17.8819C148.53 17.2876 149.148 16.8304 149.91 16.5104C150.671 16.1752 151.51 16.0076 152.424 16.0076C153.49 16.0076 154.405 16.1981 155.167 16.579C155.944 16.9447 156.53 17.4704 156.927 18.1562C157.338 18.8419 157.544 19.6723 157.544 20.6476V27.619H155.212L154.938 25.7904C154.786 26.0952 154.588 26.3771 154.344 26.6362C154.115 26.88 153.849 27.1009 153.544 27.299C153.239 27.4819 152.889 27.6266 152.492 27.7333C152.111 27.84 151.677 27.8933 151.19 27.8933ZM151.807 25.7219C152.249 25.7219 152.645 25.6457 152.995 25.4933C153.346 25.3257 153.643 25.0971 153.887 24.8076C154.146 24.5181 154.344 24.1904 154.481 23.8247C154.618 23.459 154.702 23.0781 154.732 22.6819V22.659H152.195C151.647 22.659 151.197 22.7276 150.847 22.8647C150.496 23.0019 150.237 23.1923 150.07 23.4362C149.917 23.6647 149.841 23.9314 149.841 24.2362C149.841 24.5562 149.917 24.8304 150.07 25.059C150.237 25.2723 150.466 25.44 150.755 25.5619C151.045 25.6685 151.395 25.7219 151.807 25.7219ZM165.87 27.8933C164.728 27.8933 163.714 27.6419 162.83 27.139C161.947 26.6362 161.253 25.9428 160.75 25.059C160.248 24.16 159.996 23.1238 159.996 21.9504C159.996 20.7771 160.248 19.7485 160.75 18.8647C161.253 17.9809 161.947 17.2876 162.83 16.7847C163.714 16.2666 164.728 16.0076 165.87 16.0076C167.303 16.0076 168.507 16.3809 169.482 17.1276C170.457 17.8742 171.082 18.8952 171.356 20.1904H168.453C168.316 19.6114 168.011 19.1619 167.539 18.8419C167.067 18.5219 166.503 18.3619 165.848 18.3619C165.284 18.3619 164.773 18.499 164.316 18.7733C163.859 19.0476 163.486 19.459 163.196 20.0076C162.922 20.5409 162.785 21.1885 162.785 21.9504C162.785 22.5143 162.861 23.0247 163.013 23.4819C163.181 23.9238 163.402 24.3047 163.676 24.6247C163.966 24.9295 164.293 25.1657 164.659 25.3333C165.04 25.4857 165.436 25.5619 165.848 25.5619C166.29 25.5619 166.686 25.4933 167.036 25.3562C167.387 25.2038 167.684 24.9904 167.928 24.7162C168.187 24.4419 168.362 24.1066 168.453 23.7104H171.356C171.082 24.9752 170.457 25.9885 169.482 26.7504C168.507 27.5123 167.303 27.8933 165.87 27.8933ZM179.396 27.8933C178.253 27.8933 177.24 27.6495 176.356 27.1619C175.488 26.659 174.802 25.9733 174.299 25.1047C173.811 24.2209 173.568 23.1923 173.568 22.019C173.568 20.8304 173.811 19.7866 174.299 18.8876C174.787 17.9885 175.465 17.2876 176.333 16.7847C177.217 16.2666 178.238 16.0076 179.396 16.0076C180.524 16.0076 181.507 16.259 182.345 16.7619C183.183 17.2495 183.838 17.9047 184.31 18.7276C184.783 19.5504 185.019 20.48 185.019 21.5162C185.019 21.6685 185.011 21.8362 184.996 22.019C184.996 22.2019 184.989 22.4 184.973 22.6133H175.533V20.8533H182.253C182.208 20.0457 181.918 19.4133 181.385 18.9562C180.851 18.4838 180.189 18.2476 179.396 18.2476C178.832 18.2476 178.307 18.3771 177.819 18.6362C177.347 18.88 176.966 19.2533 176.676 19.7562C176.402 20.2438 176.265 20.8685 176.265 21.6304V22.2933C176.265 22.9943 176.402 23.5962 176.676 24.099C176.95 24.5866 177.324 24.9676 177.796 25.2419C178.269 25.5009 178.794 25.6304 179.373 25.6304C179.998 25.6304 180.524 25.4933 180.95 25.219C181.377 24.9295 181.697 24.5485 181.91 24.0762H184.676C184.478 24.8076 184.128 25.4628 183.625 26.0419C183.137 26.6057 182.535 27.0552 181.819 27.3904C181.103 27.7257 180.295 27.8933 179.396 27.8933ZM192.123 27.8933C191.148 27.8933 190.279 27.7333 189.517 27.4133C188.755 27.0781 188.146 26.6209 187.689 26.0419C187.247 25.4628 186.98 24.7923 186.889 24.0304H189.631C189.723 24.3504 189.868 24.64 190.066 24.899C190.279 25.1581 190.553 25.3638 190.889 25.5162C191.239 25.6685 191.643 25.7447 192.1 25.7447C192.542 25.7447 192.908 25.6838 193.197 25.5619C193.487 25.4247 193.692 25.2571 193.814 25.059C193.951 24.8457 194.02 24.6247 194.02 24.3962C194.02 24.0304 193.921 23.7562 193.723 23.5733C193.54 23.3904 193.258 23.2457 192.877 23.139C192.496 23.0171 192.047 22.9028 191.529 22.7962C191.056 22.6895 190.569 22.56 190.066 22.4076C189.563 22.2552 189.106 22.0647 188.694 21.8362C188.283 21.5923 187.948 21.2876 187.689 20.9219C187.445 20.5409 187.323 20.0838 187.323 19.5504C187.323 18.88 187.498 18.2781 187.849 17.7447C188.199 17.1962 188.71 16.7695 189.38 16.4647C190.05 16.16 190.858 16.0076 191.803 16.0076C193.113 16.0076 194.165 16.32 194.957 16.9447C195.765 17.5543 196.237 18.4152 196.374 19.5276H193.769C193.692 19.1009 193.479 18.7657 193.129 18.5219C192.793 18.2781 192.344 18.1562 191.78 18.1562C191.201 18.1562 190.759 18.2704 190.454 18.499C190.15 18.7123 189.997 18.9943 189.997 19.3447C189.997 19.5733 190.096 19.779 190.294 19.9619C190.508 20.1447 190.797 20.2971 191.163 20.419C191.529 20.5409 191.955 20.6628 192.443 20.7847C193.235 20.9523 193.959 21.1504 194.614 21.379C195.27 21.6076 195.795 21.9352 196.191 22.3619C196.588 22.7885 196.786 23.4057 196.786 24.2133C196.801 24.9295 196.618 25.5695 196.237 26.1333C195.856 26.6819 195.315 27.1162 194.614 27.4362C193.913 27.7409 193.083 27.8933 192.123 27.8933Z" fill="#222222"/>
<path d="M47.4385 27.619L53.3128 11.619H56.3756L62.2042 27.619H59.3013L54.8213 14.819L50.3185 27.619H47.4385ZM50.0442 23.8476L50.7985 21.6762H58.6613L59.3928 23.8476H50.0442ZM64.2913 27.619V16.2819H66.737L66.9885 18.4304C67.2628 17.9276 67.598 17.5009 67.9942 17.1504C68.3904 16.7847 68.8551 16.5028 69.3885 16.3047C69.9218 16.1066 70.5161 16.0076 71.1713 16.0076V18.8876H70.417C69.9294 18.8876 69.4799 18.9485 69.0685 19.0704C68.657 19.1771 68.299 19.36 67.9942 19.619C67.6894 19.8781 67.4532 20.2362 67.2856 20.6933C67.118 21.1352 67.0342 21.6838 67.0342 22.339V27.619H64.2913ZM73.1975 27.619V16.2819H75.6432L75.8947 18.4304C76.169 17.9276 76.5042 17.5009 76.9004 17.1504C77.2966 16.7847 77.7613 16.5028 78.2947 16.3047C78.828 16.1066 79.4223 16.0076 80.0775 16.0076V18.8876H79.3232C78.8356 18.8876 78.3861 18.9485 77.9747 19.0704C77.5632 19.1771 77.2051 19.36 76.9004 19.619C76.5956 19.8781 76.3594 20.2362 76.1918 20.6933C76.0242 21.1352 75.9404 21.6838 75.9404 22.339V27.619H73.1975ZM87.2297 27.8933C86.1478 27.8933 85.165 27.6419 84.2811 27.139C83.4126 26.6362 82.7269 25.9428 82.224 25.059C81.7211 24.16 81.4697 23.1238 81.4697 21.9504C81.4697 20.7771 81.7211 19.7409 82.224 18.8419C82.7421 17.9428 83.4354 17.2495 84.304 16.7619C85.1878 16.259 86.1707 16.0076 87.2526 16.0076C88.3497 16.0076 89.3326 16.259 90.2011 16.7619C91.0697 17.2495 91.7554 17.9428 92.2583 18.8419C92.7764 19.7257 93.0354 20.7619 93.0354 21.9504C93.0354 23.1238 92.7764 24.16 92.2583 25.059C91.7554 25.9428 91.0621 26.6362 90.1783 27.139C89.3097 27.6419 88.3269 27.8933 87.2297 27.8933ZM87.2297 25.539C87.7783 25.539 88.2735 25.4095 88.7154 25.1504C89.1726 24.8762 89.5383 24.4723 89.8126 23.939C90.0869 23.4057 90.224 22.7428 90.224 21.9504C90.224 21.1581 90.0869 20.4952 89.8126 19.9619C89.5383 19.4285 89.1726 19.0323 88.7154 18.7733C88.2735 18.499 87.7859 18.3619 87.2526 18.3619C86.7345 18.3619 86.2469 18.499 85.7897 18.7733C85.3326 19.0323 84.9592 19.4285 84.6697 19.9619C84.3954 20.4952 84.2583 21.1581 84.2583 21.9504C84.2583 22.7276 84.3954 23.3904 84.6697 23.939C84.9592 24.4723 85.325 24.8762 85.7669 25.1504C86.224 25.4095 86.7116 25.539 87.2297 25.539ZM97.4914 27.619L94.154 16.2819H96.8743L99.2514 25.8819L98.5886 25.859L101.286 16.2819H104.326L107.046 25.859L106.36 25.8819L108.737 16.2819H111.48L108.143 27.619H105.309L102.429 17.699H103.183L100.326 27.619H97.4914ZM124.419 27.8933C123.261 27.8933 122.232 27.6876 121.333 27.2762C120.434 26.8647 119.726 26.2781 119.208 25.5162C118.705 24.7542 118.446 23.8476 118.43 22.7962H121.333C121.349 23.3295 121.478 23.8095 121.722 24.2362C121.966 24.6476 122.309 24.9752 122.75 25.219C123.208 25.4628 123.756 25.5847 124.396 25.5847C124.96 25.5847 125.44 25.5009 125.836 25.3333C126.248 25.1504 126.56 24.899 126.773 24.579C126.987 24.2438 127.093 23.8552 127.093 23.4133C127.093 22.8952 126.971 22.4762 126.728 22.1562C126.499 21.8209 126.171 21.539 125.745 21.3104C125.333 21.0819 124.853 20.8838 124.305 20.7162C123.771 20.5485 123.208 20.3581 122.613 20.1447C121.379 19.7333 120.442 19.2 119.802 18.5447C119.162 17.8743 118.842 16.9828 118.842 15.8704C118.842 14.9409 119.063 14.1409 119.505 13.4704C119.962 12.8 120.587 12.2819 121.379 11.9162C122.187 11.5352 123.116 11.3447 124.168 11.3447C125.234 11.3447 126.164 11.5352 126.956 11.9162C127.749 12.2971 128.373 12.8304 128.83 13.5162C129.303 14.1866 129.547 14.9943 129.562 15.939H126.636C126.636 15.5428 126.53 15.1771 126.316 14.8419C126.118 14.4914 125.829 14.2095 125.448 13.9962C125.082 13.7676 124.64 13.6533 124.122 13.6533C123.665 13.6381 123.253 13.7143 122.888 13.8819C122.522 14.0343 122.232 14.2628 122.019 14.5676C121.821 14.8571 121.722 15.2228 121.722 15.6647C121.722 16.0914 121.821 16.4495 122.019 16.739C122.217 17.0133 122.499 17.2495 122.865 17.4476C123.23 17.6304 123.65 17.8057 124.122 17.9733C124.61 18.1409 125.143 18.3238 125.722 18.5219C126.514 18.7809 127.23 19.1009 127.87 19.4819C128.526 19.8476 129.044 20.3276 129.425 20.9219C129.806 21.5162 129.996 22.2857 129.996 23.2304C129.996 24.0533 129.783 24.8228 129.356 25.539C128.93 26.24 128.305 26.8114 127.482 27.2533C126.659 27.68 125.638 27.8933 124.419 27.8933ZM132.528 32.6476V16.2819H134.973L135.27 17.9504C135.514 17.6152 135.811 17.2952 136.162 16.9904C136.512 16.6857 136.931 16.4495 137.419 16.2819C137.907 16.099 138.478 16.0076 139.133 16.0076C140.215 16.0076 141.168 16.2666 141.99 16.7847C142.829 17.3028 143.491 18.0114 143.979 18.9104C144.467 19.8095 144.71 20.8304 144.71 21.9733C144.71 23.1162 144.467 24.1371 143.979 25.0362C143.491 25.92 142.829 26.6209 141.99 27.139C141.152 27.6419 140.192 27.8933 139.11 27.8933C138.242 27.8933 137.48 27.7333 136.825 27.4133C136.185 27.0781 135.667 26.6057 135.27 25.9962V32.6476H132.528ZM138.562 25.5162C139.217 25.5162 139.796 25.3638 140.299 25.059C140.817 24.7543 141.213 24.3352 141.488 23.8019C141.777 23.2685 141.922 22.6514 141.922 21.9504C141.922 21.2647 141.777 20.6552 141.488 20.1219C141.213 19.5733 140.817 19.1466 140.299 18.8419C139.796 18.5371 139.217 18.3847 138.562 18.3847C137.907 18.3847 137.328 18.5371 136.825 18.8419C136.322 19.1466 135.926 19.5657 135.636 20.099C135.362 20.6323 135.225 21.2495 135.225 21.9504C135.225 22.6514 135.362 23.2685 135.636 23.8019C135.926 24.3352 136.322 24.7543 136.825 25.059C137.328 25.3638 137.907 25.5162 138.562 25.5162ZM151.19 27.8933C150.23 27.8933 149.437 27.7409 148.812 27.4362C148.188 27.1162 147.723 26.6971 147.418 26.179C147.113 25.6457 146.961 25.0666 146.961 24.4419C146.961 23.7257 147.144 23.1085 147.51 22.5904C147.89 22.0571 148.447 21.6457 149.178 21.3562C149.91 21.0514 150.816 20.899 151.898 20.899H154.801C154.801 20.3047 154.71 19.8171 154.527 19.4362C154.359 19.04 154.092 18.7428 153.727 18.5447C153.376 18.3466 152.934 18.2476 152.401 18.2476C151.776 18.2476 151.228 18.4 150.755 18.7047C150.298 18.9942 150.024 19.4285 149.932 20.0076H147.235C147.311 19.1847 147.586 18.4762 148.058 17.8819C148.53 17.2876 149.148 16.8304 149.91 16.5104C150.671 16.1752 151.51 16.0076 152.424 16.0076C153.49 16.0076 154.405 16.1981 155.167 16.579C155.944 16.9447 156.53 17.4704 156.927 18.1562C157.338 18.8419 157.544 19.6723 157.544 20.6476V27.619H155.212L154.938 25.7904C154.786 26.0952 154.588 26.3771 154.344 26.6362C154.115 26.88 153.849 27.1009 153.544 27.299C153.239 27.4819 152.889 27.6266 152.492 27.7333C152.111 27.84 151.677 27.8933 151.19 27.8933ZM151.807 25.7219C152.249 25.7219 152.645 25.6457 152.995 25.4933C153.346 25.3257 153.643 25.0971 153.887 24.8076C154.146 24.5181 154.344 24.1904 154.481 23.8247C154.618 23.459 154.702 23.0781 154.732 22.6819V22.659H152.195C151.647 22.659 151.197 22.7276 150.847 22.8647C150.496 23.0019 150.237 23.1923 150.07 23.4362C149.917 23.6647 149.841 23.9314 149.841 24.2362C149.841 24.5562 149.917 24.8304 150.07 25.059C150.237 25.2723 150.466 25.44 150.755 25.5619C151.045 25.6685 151.395 25.7219 151.807 25.7219ZM165.87 27.8933C164.728 27.8933 163.714 27.6419 162.83 27.139C161.947 26.6362 161.253 25.9428 160.75 25.059C160.248 24.16 159.996 23.1238 159.996 21.9504C159.996 20.7771 160.248 19.7485 160.75 18.8647C161.253 17.9809 161.947 17.2876 162.83 16.7847C163.714 16.2666 164.728 16.0076 165.87 16.0076C167.303 16.0076 168.507 16.3809 169.482 17.1276C170.457 17.8742 171.082 18.8952 171.356 20.1904H168.453C168.316 19.6114 168.011 19.1619 167.539 18.8419C167.067 18.5219 166.503 18.3619 165.848 18.3619C165.284 18.3619 164.773 18.499 164.316 18.7733C163.859 19.0476 163.486 19.459 163.196 20.0076C162.922 20.5409 162.785 21.1885 162.785 21.9504C162.785 22.5143 162.861 23.0247 163.013 23.4819C163.181 23.9238 163.402 24.3047 163.676 24.6247C163.966 24.9295 164.293 25.1657 164.659 25.3333C165.04 25.4857 165.436 25.5619 165.848 25.5619C166.29 25.5619 166.686 25.4933 167.036 25.3562C167.387 25.2038 167.684 24.9904 167.928 24.7162C168.187 24.4419 168.362 24.1066 168.453 23.7104H171.356C171.082 24.9752 170.457 25.9885 169.482 26.7504C168.507 27.5123 167.303 27.8933 165.87 27.8933ZM179.396 27.8933C178.253 27.8933 177.24 27.6495 176.356 27.1619C175.488 26.659 174.802 25.9733 174.299 25.1047C173.811 24.2209 173.568 23.1923 173.568 22.019C173.568 20.8304 173.811 19.7866 174.299 18.8876C174.787 17.9885 175.465 17.2876 176.333 16.7847C177.217 16.2666 178.238 16.0076 179.396 16.0076C180.524 16.0076 181.507 16.259 182.345 16.7619C183.183 17.2495 183.838 17.9047 184.31 18.7276C184.783 19.5504 185.019 20.48 185.019 21.5162C185.019 21.6685 185.011 21.8362 184.996 22.019C184.996 22.2019 184.989 22.4 184.973 22.6133H175.533V20.8533H182.253C182.208 20.0457 181.918 19.4133 181.385 18.9562C180.851 18.4838 180.189 18.2476 179.396 18.2476C178.832 18.2476 178.307 18.3771 177.819 18.6362C177.347 18.88 176.966 19.2533 176.676 19.7562C176.402 20.2438 176.265 20.8685 176.265 21.6304V22.2933C176.265 22.9943 176.402 23.5962 176.676 24.099C176.95 24.5866 177.324 24.9676 177.796 25.2419C178.269 25.5009 178.794 25.6304 179.373 25.6304C179.998 25.6304 180.524 25.4933 180.95 25.219C181.377 24.9295 181.697 24.5485 181.91 24.0762H184.676C184.478 24.8076 184.128 25.4628 183.625 26.0419C183.137 26.6057 182.535 27.0552 181.819 27.3904C181.103 27.7257 180.295 27.8933 179.396 27.8933ZM192.123 27.8933C191.148 27.8933 190.279 27.7333 189.517 27.4133C188.755 27.0781 188.146 26.6209 187.689 26.0419C187.247 25.4628 186.98 24.7923 186.889 24.0304H189.631C189.723 24.3504 189.868 24.64 190.066 24.899C190.279 25.1581 190.553 25.3638 190.889 25.5162C191.239 25.6685 191.643 25.7447 192.1 25.7447C192.542 25.7447 192.908 25.6838 193.197 25.5619C193.487 25.4247 193.692 25.2571 193.814 25.059C193.951 24.8457 194.02 24.6247 194.02 24.3962C194.02 24.0304 193.921 23.7562 193.723 23.5733C193.54 23.3904 193.258 23.2457 192.877 23.139C192.496 23.0171 192.047 22.9028 191.529 22.7962C191.056 22.6895 190.569 22.56 190.066 22.4076C189.563 22.2552 189.106 22.0647 188.694 21.8362C188.283 21.5923 187.948 21.2876 187.689 20.9219C187.445 20.5409 187.323 20.0838 187.323 19.5504C187.323 18.88 187.498 18.2781 187.849 17.7447C188.199 17.1962 188.71 16.7695 189.38 16.4647C190.05 16.16 190.858 16.0076 191.803 16.0076C193.113 16.0076 194.165 16.32 194.957 16.9447C195.765 17.5543 196.237 18.4152 196.374 19.5276H193.769C193.692 19.1009 193.479 18.7657 193.129 18.5219C192.793 18.2781 192.344 18.1562 191.78 18.1562C191.201 18.1562 190.759 18.2704 190.454 18.499C190.15 18.7123 189.997 18.9943 189.997 19.3447C189.997 19.5733 190.096 19.779 190.294 19.9619C190.508 20.1447 190.797 20.2971 191.163 20.419C191.529 20.5409 191.955 20.6628 192.443 20.7847C193.235 20.9523 193.959 21.1504 194.614 21.379C195.27 21.6076 195.795 21.9352 196.191 22.3619C196.588 22.7885 196.786 23.4057 196.786 24.2133C196.801 24.9295 196.618 25.5695 196.237 26.1333C195.856 26.6819 195.315 27.1162 194.614 27.4362C193.913 27.7409 193.083 27.8933 192.123 27.8933Z" fill="black" fill-opacity="0.2"/>
</svg>
