<svg width="20" height="20" viewBox="0 0 20 20" fill="none" xmlns="http://www.w3.org/2000/svg">
<g id="System Icons">
<path id="Vector" d="M2.5 5.8335V15.0002M2.5 11.6668H17.5M17.5 15.0002V8.3335C17.5 7.89147 17.3244 7.46755 17.0118 7.15498C16.6993 6.84242 16.2754 6.66683 15.8333 6.66683H9.16667V11.6668M5 8.3335C5 8.55451 5.0878 8.76647 5.24408 8.92275C5.40036 9.07903 5.61232 9.16683 5.83333 9.16683C6.05435 9.16683 6.26631 9.07903 6.42259 8.92275C6.57887 8.76647 6.66667 8.55451 6.66667 8.3335C6.66667 8.11248 6.57887 7.90052 6.42259 7.74424C6.26631 7.58796 6.05435 7.50016 5.83333 7.50016C5.61232 7.50016 5.40036 7.58796 5.24408 7.74424C5.0878 7.90052 5 8.11248 5 8.3335Z" stroke="#5E5E5E" stroke-width="1.5" stroke-linecap="round" stroke-linejoin="round"/>
</g>
</svg>
